<?xml version="1.0" standalone="no"?>
<!DOCTYPE svg PUBLIC "-//W3C//DTD SVG 20010904//EN"
 "http://www.w3.org/TR/2001/REC-SVG-20010904/DTD/svg10.dtd">
<svg version="1.0" xmlns="http://www.w3.org/2000/svg"
 width="3000.000000pt" height="3000.000000pt" viewBox="0 0 3000.000000 3000.000000"
 preserveAspectRatio="xMidYMid meet">

<g transform="translate(0.000000,3000.000000) scale(0.100000,-0.100000)"
fill="#000000" stroke="none">
<path d="M11624 18788 c-1594 -2030 -2950 -3756 -3011 -3835 l-113 -143 82
-65 c64 -49 85 -62 94 -52 6 7 1313 1670 2905 3697 1591 2027 2941 3747 3001
3822 l108 137 -73 57 c-39 32 -77 61 -83 65 -6 5 -1073 -1345 -2910 -3683z
m2981 3617 c35 -27 64 -53 65 -57 0 -14 -6002 -7649 -6011 -7646 -16 5 -138
103 -139 110 0 14 6002 7649 6011 7646 5 -2 38 -25 74 -53z"/>
<path d="M11223 18942 c-1051 -1340 -1930 -2460 -1952 -2489 l-42 -52 83 -65
c64 -50 85 -63 94 -53 6 7 861 1097 1899 2422 1039 1326 1913 2440 1942 2477
l52 66 -72 58 c-40 31 -77 61 -83 65 -6 5 -716 -892 -1921 -2429z m1992 2363
c35 -27 64 -53 65 -57 0 -14 -3882 -4959 -3891 -4956 -16 5 -138 103 -139 110
0 14 3882 4959 3891 4956 5 -2 38 -25 74 -53z"/>
<path d="M11909 18497 c-1020 -1299 -1896 -2414 -1946 -2479 l-93 -118 82 -65
c64 -49 85 -62 94 -52 6 7 834 1061 1839 2342 1006 1282 1877 2392 1937 2467
l108 137 -73 57 c-39 32 -77 61 -83 65 -6 5 -691 -859 -1865 -2354z m1936
2288 c35 -27 64 -53 65 -57 0 -14 -3872 -4939 -3881 -4936 -16 5 -138 103
-139 110 0 14 3872 4939 3881 4936 5 -2 38 -25 74 -53z"/>
<path d="M17759 13543 c-1553 -1984 -2906 -3711 -3006 -3840 l-183 -233 83
-65 c63 -49 84 -62 93 -52 6 7 1295 1652 2865 3657 1569 2005 2917 3727 2996
3827 l142 181 -72 58 c-40 31 -77 61 -83 65 -6 5 -1058 -1330 -2835 -3598z
m2906 3532 c35 -27 64 -53 65 -57 0 -14 -5992 -7659 -6001 -7656 -16 5 -138
103 -139 110 0 14 5992 7659 6001 7656 5 -2 38 -25 74 -53z"/>
<path d="M17399 13738 c-992 -1266 -1870 -2386 -1951 -2489 l-147 -188 82 -65
c63 -51 84 -63 93 -53 6 6 861 1097 1899 2422 1039 1326 1913 2440 1942 2477
l52 66 -72 58 c-40 31 -77 61 -83 65 -6 5 -672 -836 -1815 -2293z m1886 2227
c35 -27 64 -53 65 -57 0 -14 -3882 -4959 -3891 -4956 -16 5 -138 103 -139 110
0 14 3882 4959 3891 4956 5 -2 38 -25 74 -53z"/>
<path d="M17979 13157 c-1020 -1299 -1896 -2414 -1946 -2479 l-93 -118 82 -65
c64 -49 85 -62 94 -52 6 7 834 1061 1839 2342 1006 1282 1877 2392 1937 2467
l108 137 -73 57 c-39 32 -77 61 -83 65 -7 6 -685 -851 -1865 -2354z m1936
2288 c35 -27 64 -55 62 -61 -4 -19 -3869 -4935 -3878 -4932 -16 5 -138 103
-139 110 0 14 3872 4939 3881 4936 5 -2 38 -25 74 -53z"/>
</g>
</svg>
